<?xml version="1.0" encoding="utf-8"?>
<!-- Generator: Adobe Illustrator 23.0.0, SVG Export Plug-In . SVG Version: 6.00 Build 0)  -->
<svg version="1.1" xmlns="http://www.w3.org/2000/svg" xmlns:xlink="http://www.w3.org/1999/xlink" x="0px" y="0px"
	 viewBox="0 0 742 885" enable-background="new 0 0 742 885" xml:space="preserve">

<g id="inf_x5F_vw1_x5F_plm">
	<path d="M117,658c0,0-37-74-75-89c0,0-26-74-29-111s14-55,14-55l36.8-35.5c0,0,18.3,19,40.3,36
		S223.9,499.3,277,525.8l17,15.2c0,0-37,43-42,47s-15,13-15,13C197.7,638.2,157.8,658.9,117,658z"/>
	<path d="M474.3,297.5L445,375.9c0,0-61.8,45.8-69.7,57.5l-69.9-51.2c0,0,70.6-93.2,118.6-116.2L474.3,297.5z"/>
</g>
<g id="inf_x5F_vw1_x5F_bfg">
	<g>
		<path d="M119,658l-1.3,6c0,0,35.8,38.5,51.8,42c0,0,19-13,20.5-13s66.5-31,86-46.5S382,556,382,556l108-94.5
			l14.5,11l34.5-49l91.5-77.5c0,0,56-48,59.5-61.5s4-19,4-19S666.5,247,650,250s-49.5,11.5-49.5,11.5l-11,6.5l-89,65.5l-62,46.5
			c0,0-54,43.5-60.5,51l-97.5,117L262,574c0,0-12.5,20.5-24,23C207,632.8,167.5,653.4,119,658z"/>
		<path d="M735.5,315.5c0,0,11,30-3,59s-53,89-77,111.5L602,552l-75.5,90.5c0,0-13,22.5-22,31s-21,20.5-21,20.5
			s-35.5-23-6.5-70.5s63-75.5,63-75.5l55-63c0,0,38.5-28,56-60c0,0,54.5-50.5,67-70S735.5,315.5,735.5,315.5z"/>
		<path d="M272,30l-31,21l-47,38l-88,85c0,0-75,74-82,116c0,0-31,68-18,148s19,110,19,110s10,18,18,22
			c0,0-19-153.4-14-169.7C34,384,55,360,55,360l79-124l64-69l34-45l-17-9.2c0,0-17-23.8,5-38.8s57-40,57-40L272,30z"/>
	</g>
</g>
<g id="inf_x5F_vw1_x5F_mid">
	<path d="M163.1,707c0,0,146,130.5,123.5,161c0,0,32-5,49-18.5s44.5-37,50.5-47.5s85-99,85-99l-3.5-9
		c0,0-24.5-35.5,3.5-76.5s72-88.5,72-88.5s72.5-75.5,74.5-77.5s84.5-87.5,84.5-87.5s31.4-33,33.4-48.5S720.1,281,691.6,270
		c0,0-30,44.9-62.5,71.2c-32.5,26.3-100.5,84.3-100.5,84.3l-98,81l-88,78.5l-46,40.5c0,0-70,51.5-102.5,64L163.1,707z"/>
</g>
<g id="inf_x5F_vw1_x5F_wlt">
	<g>
		<path d="M688,263c0,0,6,15.5-28.5,44.5c0,0-44.5,43.5-61,55.5L556,398.5L479,464l-82,72l-68,61.5
			c0,0-82.5,77.5-143,93.5l-20,13.5l2.7,7.1l21.3-15.1c75.5-35,113.6-66.2,142.5-92.5l88-75.5l75-64.5l85-72c0,0,69-54.5,88.5-77
			s24.5-25.5,29-45C698,270,694.5,262.5,688,263z"/>
		<path d="M734.5,313.5c0,0-2.5,20-23,41s-57,53-57,53l-69,76l-38.5,45L526,552c0,0-24,28-30,34.5s-20,24-26.5,39.5
			s-19,41,0,68l6.5-6c0,0-29-35,15-85.5s52-59.5,52-59.5l51-57.3c0,0,40-31.2,54-55.7l15-17.5c0,0,67.5-63.5,71.5-74.5
			S734.5,313.5,734.5,313.5z"/>
	</g>
</g>
<g id="inf_x5F_vw1_x5F_web">
	<g>
		<path d="M304,5c0,0-20,8-27,31l-30,19c0,0-35,14-39,43c0,0-1,11,9,16s16,7,16,7s-85,113-95,120l-30-25
			c0,0-6-8-18-8s-29,46-29,46h-6c0,0-7,20-15,27s-11,24-11,24l30,48l-1-21l15-10c0,0,14,27,13,47l8,6.9L252,510c0,0,54,34,59,38
			l60-84l16-21.5L308,381c0,0,46-67,116-115c0,0,66,40,85,69l83-69l19-22l25-18v-7l-26-23L453,77l-89-58L327,2h-11L304,5z"/>
		<path d="M314,239c0,0-45,46-64,71l-35-7l71-98L314,239z"/>
	</g>
</g>
<g id="inf_x5F_vw1_x1F__x5F_wst">
	<path d="M117.8,664c-0.2,4,13.1,13.5,43,40c49,47.5,70,57.5,75,69
		c0,0,45,40.5,56,96c-52,12-127,5.9-155.1-24.6L122.5,823L73.6,708.4C99.1,709.3,113.1,694.7,117.8,664z"/>
</g>
<g id="inf_x5F_vw1_x5F_stch">
	<path fill="none" stroke="#F3EC60" stroke-miterlimit="10" stroke-dasharray="8,2" d="M112.5,691c0,0,23.5,22.5,34,28.5
		S163,737,163,737l58,56.5c0,0,28,28,47,74.5"/>
	<path fill="none" stroke="#F3EC60" stroke-miterlimit="10" stroke-dasharray="8,2" d="M138.5,841C158,881,280,887.5,341,847"/>
	<path fill="none" stroke="#F3EC60" stroke-miterlimit="10" stroke-dasharray="8,2" d="M117.5,677.5c0,0,21.1,22,48.5,39.5
		c50,49.5,124.3,121.3,120.5,147.5"/>
	<path fill="none" stroke="#F3EC60" stroke-miterlimit="10" stroke-dasharray="8,2" d="M42.5,569c0,0,33.5,19,66.5,70.5"/>
	<path fill="none" stroke="#F3EC60" stroke-miterlimit="10" stroke-dasharray="8,2" d="M112.5,641.5c32.5,4,68.8-14.6,102-37.3
		C106,610.5,46,547,17.5,446.5c0,0,10.5,72,25,117"/>
	<path fill="none" stroke="#F3EC60" stroke-miterlimit="10" stroke-dasharray="8,2" d="M17.5,435.5c25.3,109.6,91.5,172,210,161
		c0,0-54.5,55-111.5,51.5"/>
	<path fill="none" stroke="#F3EC60" stroke-miterlimit="10" stroke-dasharray="8,2" d="M59,275.5c0,0,29,61,84,96.5
		s43.5,35.5,43.5,35.5s45.5,44.5,86.5,69s50,29.5,50,29.5l19.5-25.5L338,470l-57.5-40"/>
	<polyline fill="none" stroke="#F3EC60" stroke-miterlimit="10" stroke-dasharray="8,2" points="277.5,442.5 339.4,484.6 
		328.2,499.3 280.5,470.9 264.5,466 	"/>
	<path fill="none" stroke="#F3EC60" stroke-miterlimit="10" stroke-dasharray="8,2" d="M425.5,240.5C350,304,281.2,365.3,256,446.5"
		/>
	<path fill="none" stroke="#F3EC60" stroke-miterlimit="10" stroke-dasharray="8,2" d="M204.5,398.5c0,0,34-85,114.5-153"/>
	<path fill="none" stroke="#F3EC60" stroke-miterlimit="10" stroke-dasharray="8,2" d="M272.5,201c0,0-51.5,68-58,74.5s-39,43-39,43
		s-23,25-26.5,34.5"/>
	<path fill="none" stroke="#F3EC60" stroke-miterlimit="10" stroke-dasharray="8,2" d="M297.5,72.5c0,0-25.5,17.5-51,48.5
		s-87.5,110-88,111.5s-49.3,57-57.5,75.5"/>
	<path fill="none" stroke="#F3EC60" stroke-miterlimit="10" stroke-dasharray="8,2" d="M68.5,260l29,28l-29-31l5-5.5
		c0,0,20.5,26,27.5,30.5"/>
	<path fill="none" stroke="#F3EC60" stroke-miterlimit="10" stroke-dasharray="8,2" d="M278.5,78.5l-27.5-20l24.5-14
		c0,0,47.5,10.5,95.5,58c0,0,10.5,15,46,38s63.5,58,63.5,58s58.5,32,88,66.5l-22,23L469,231l5-8l78,54"/>
	<path fill="none" stroke="#F3EC60" stroke-miterlimit="10" stroke-dasharray="8,2" d="M342.5,87.5c1.4-2,19,15.4,25,28.5
		c5.3,11.6,24.5,19.5,24.5,19.5s25.5,8.5,54,36s34.5,35,48,44s58,38,68.5,51.5"/>
	<line fill="none" stroke="#F3EC60" stroke-miterlimit="10" stroke-dasharray="8,2" x1="170" y1="358.5" x2="199.3" y2="380"/>
	<line fill="none" stroke="#F3EC60" stroke-miterlimit="10" stroke-dasharray="8,2" x1="174" y1="353" x2="204.5" y2="373"/>
</g>
<g id="inf_x5F_vw1_x5F_bnd">
	<path d="M138.5,842c30,43,156.5,43.6,203.5,3.5v13
		c-31,21-152.5,48.5-203.5-8.3V842z"/>
	<path d="M27,545.5c0,0-2,12,21,26s64,72.5,64,72.5s11.5,32.5-3,49
		s-18.5,16.5-18.5,16.5l-14-5c0,0-24-22.5,1-45l21-12.5c0,0-21-43-55.5-68.5l-20-21C21.7,552.4,23.3,548.5,27,545.5z"/>
	<path d="M639,242.5l6,6.5c0,0,30.5-2,48.5,16.5c0,0,23,12.5,30,20v-7
		c0,0-33-30-53-36S639,242.5,639,242.5z"/>
	<path d="M57.5,377c0,0-14.5,3-31.5,29l-5.5,3c0,0,11.5-28.5,28.5-41.5
		L57.5,377z"/>
	<path d="M288,541.5c0,0-27,30-30,42.5l-7.5,4.5H247c0,0,0-6,9-20.5
		s29-30.5,29-30.5L288,541.5z"/>
</g>
<g id="inf_x5F_vw1_x5F_lce">
	<path d="M17.5,288H8v20c0,0,4,13,21,31s46.8,51.8,46.8,51.8S50.3,399,41.9,411s-4.4,9-4.4,9l8.5,12h9l16-17
		c0,0,3,53,11,65s16.5-2.2,16.5-2.2V467c0,0-5.5-22-5-35c0,0,10.5,5.5,22.5,3.5s3,0,3,0l13,11h17l28.5,43c0,0-26.7,9.5-37.6,16.5
		l13.4,23c0,0,26.7-18.5,39.2-20c0,0,1.5,38.5,12,52.5c0,0,15,4,23,0v-10c0,0-5.5-11.5-7.5-16s38,33.5,38,33.5l19,14.5l12.5-11v-7
		L224,503.8c0,0,15.5-7.3,29,0l8.8-1.8c0,0,9.8-7,2.8-13.5s-8.5-7-8.5-7s-13.8-4.8-41.9-3.7l-9.6-35.3L186,422l-9-0.5l-3-5
		c0,0-8-4-13.5-11.5c0,0-5.5-4-17,3l-16-3.5l-2-10l8.5-0.5c0,0,5-8.5-7.5-21c0,0-20-0.7-30,2.9L87,368c0,0-3.5-30-13-42.5
		c-3.8-6-8-4-12.5,3l2.1,18c0,0-39.6-38.4-42.8-48.5C17.5,288,17.5,288,17.5,288z"/>
	<path d="M184.6,237c0,0-10.6,21.5,4.6,58l-30.8-13.5H156c0,0-11,14-12.5,18.5c0,0,22,15.5,53.5,25
		c0,0,27.5,54,43.5,62.5s17.5-11.6,17.5-11.6l-5-12.9l-23-29l47,5c0,0,9-0.5,12.5-6s6.5-17,0-17.5c-4.6-0.4-70.5-9.2-71.3-11.9
		c0,0-19.7-38.1-11.2-58.1l-7.8-12.5C195.3,231.7,190.3,233.3,184.6,237z"/>
	<path d="M245.5,166.3L228,181.5c0,0-1,14,17.5,15c0,0-3-1,10.5,0s27.5,4.5,27.5,4.5l35.5,41.5c0,0,12,18,10.5,32.5
		c0,0,26,3,25-8s-8-37-25-51.5l62,17l10-9l5-0.5l102,74.5l20-17.5v-5.2L382.5,169l3-8.5l-14.5-19l-17,4c0,0-23-9-35-4
		c0,0-88-105.5-91-108.5s-13-9-13-9l-15.8,17.5c0,0,59.3,76.5,65.3,82s0,14.5,0,14.5l8,31L245.5,166.3z"/>
	<path d="M423.5,300l-7.5-6.5l-6.3,6.5c0,0-20.8,36-30.8,43.5s-8,15-8,15l-28.5,46.7L356,416c0,0,25.5-40,27-53
		l40.5-51.9C423.5,311.1,424.5,305,423.5,300z"/>
	<path d="M341,862.5c-1,17.6,5.2,14.6,13.5,5.5c0,0,20.5-35,23-61l5-13.5l24,13.5l7-6l6,1l16.5-25h4l12.9-7.6V763
		l-8.9-3.8l21.6-25.8l14.9,4l8-4L532,715l-4-9l-22.5,6.5c0,0,0-4-7.5-6.5l13.5-21.5c0,0,10-6.5,16-20.5c0,0-6.5-14.5-1.5-20
		l-22.5,31l-16.5,2.5l-3.5,3.5c0,0-58,51.5-67,57c0,0-4.5-8-10-9.5s-25,31.5-25,31.5l3,9.4l-9,7.1c0,0-27.5,5-31,64.5L341,862.5z"/>
	<path d="M452.9,602c0,0,38.6-12,57.1-56.5l5,2.5l17,1.2c0,0,10.5-4.7,14.5-17.7S550,517,550,517l0-6l109.5-97.5
		l-16-15h-5l-7.5-7.8c0,0-7.5,5.3-17,19.8S567.5,459,567.5,459l-6,11.9l-18.5,9.6h-6.5c0,0-13,8.5-17,12S520,506,520,506l-16,19
		c0,0-66,48-97.5,96l-5.5,10.5l18,10L452.9,602z"/>
	<path d="M631.5,232.5L649,254c0,0,39,4,28.5,27.5s-31,29.6-31,29.6L636,310l-60.8,72.5c0,0-70.9,86.3-69.5,88.4
		C507,473,482,452,482,452c39-52.1,77.2-99.3,105-130c0,0,19-22.5,23.5-24.5s-7.5-5-3.5-15.5s8-16,8-16s-8.4-10.1-15.7-8.5
		C590.8,259.4,626.9,229.6,631.5,232.5z"/>
	<path d="M615.5,186c0,0-1.8,12.5-17.7,27.5c-15.8,15-29.3,27-29.3,27s-23.5-13-24-17.5s44.5-44.5,44.5-44.5
		s-9-8.2-20.5-1.3c-11.5,6.8-40,30.3-40,30.3s-11,3-23.5-15c0,0,16.5-23,50-39.5l10.4-2.7l19.1,12.7c0,0,5,3,6.5,8.5l9.5,0.5
		L615.5,186z"/>
	<path d="M549.7,150.3c-13.2-19.2-49.2,11.4-49.2,13.7c-6.3,5.1-12.5,7.9-18.5,8c-6-1.7-11-5.7-13.5-15.5
		c4.2-17.2,24.6-24.5,40.6-34.5c0,0-2.6-7-14.6-5.5S452.9,139,452.9,139l-6.9,2c0,0-14-11.5-14-18.5s39.5-34.5,56.5-29l22,15.5
		c0,0,2.5,4.5,2,9l12.5,1.5l16.5,12.9C541.5,132.4,549.9,135.1,549.7,150.3z"/>
	<path d="M473.8,92.8l-4.3-2.3c-11.9-11.1-48.7,9.5-51.5,17c-2.6,7.2-12,4-12,4c-8.7-1.9-12.5-8-13.5-16.5
		c0,0,4-21.4,39.5-31.7c0,0-20.5-7.3-45,16.7c0,0-8.3,7-16,2c-11.9-7.7-9.6-12.8-7.1-12.5c0,0,2.6-18,37.6-30c0,0-23.3-8-37.6,5
		S346,59,346,59l-3.5,0.5c-2.3,0.4-13.8-3.2-10-9.5c2.9-4.7,15.5-24.5,31.5-31c0,0-20-3-31.5,11c-11.5,14-9,14.5-9,14.5l-9.5,2
		l-3.5-7c0,0-13.5,11.5-17-2s21-31.5,21-31.5s14.5-5,25-5S355,6,355,6s14,4,22,11l14.5,7c0,0,10,3.5,15.5,12l14.5,6l18,14.3L443,62
		l9.5,3c0,0,8.5,7,15.5,10.5S473.8,92.8,473.8,92.8z"/>
	<path d="M337,511.5c0,0-16,15.1-18,25.3c0,0,13.5,1.2,13.5,2.2s4.5,11,4.5,11s10.5,1.5,16.5,8l8.5-4.5h15
		c0,0,6.4-8,6.2-22.5s-2.2-11.5-2.2-11.5l13.5-45.5v-3l12-12c0,0-1-10-15-12.5s-8.3,0-8.3,0l-12.2,14L355.5,517h-9L337,511.5z"/>
</g>
<g id="inf_x5F_vw1_x5F_logo">
	<path d="M78,721c0,0,15.7,9,22.5,9c25.5,16,41,65,20,71l7,22h-5L92,756l1-8l-8.5-8L78,728.5V721z"/>
</g>
<g id="inf_x5F_dwelt_x5F_side">
	
		<image overflow="visible" width="742" height="885" xlink:href="./assets/images/9P_infield_dwelt_side.png" >
	</image>
</g>
</svg>
