<?xml version="1.0" encoding="utf-8"?>
<!-- Generator: Adobe Illustrator 23.0.0, SVG Export Plug-In . SVG Version: 6.00 Build 0)  -->
<svg version="1.1" xmlns="http://www.w3.org/2000/svg" xmlns:xlink="http://www.w3.org/1999/xlink" x="0px" y="0px"
	 viewBox="0 0 775 737" enable-background="new 0 0 775 737" xml:space="preserve">

<g id="inf_x5F_vw2_x5F_web">
	<g>
		<path d="M156.3,304l47.3,57c0,0,14-9.7,23.3-18.7s21.3-20.7,21.3-20.7s19.3-18.7,29.7-27.3c10.3-8.7,37-29,37-29
			l11.7-6.3l2.3-43c0,0-4.7-26.7-11-26.7s-20.3,7-20.3,7l-30.3,17c0,0-26.7,23-36.3,28s-20.3,14-20.3,14L156.3,304z"/>
		<path fill="#17140B" d="M327,125c0,0-40.7-4.3-71.3,18.3c0,0,8.3,60.7,11.7,70c0,0-33,28-42.3,32.7c0,0-1.3-6.7-5.3-20.7
			S208,195,203,167.7l-23.3,17.7l17.7,39.7l11,32.3l-47,42.3l-30.7-74.3l-17.3,17l-35-36.7c0,0,8-23.3-36.7-28.7c0,0-4.3-6,10-17.3
			c14.3-11.3,39-35,39-35s6.3,3,7-5.7l20-12l4.7-5l19.3-10.7L152,84l18.3-7.7c0,0,4.3-0.3,7-4l20-9c0,0,9-4,14.3-8c5.3-4,19-4,19-4
			l12-3l65-4l21.3-1.7c0,0,5.3,7,0,21.7c0,0-8.7,11.7-5,20.7l5-1.7L327,125z"/>
	</g>
</g>
<g id="inf_x5F_vw2_x5F_plm">
	<path d="M340,140.7c0,0,9.3,43.3,2.7,70c0,0-0.4,33-3.9,52.3s-11.5,32.7-11.5,32.7c-25.3,8.7-76.7,54-112,85.3
		L120,249.7c-17.1-24.5-37.5-45.4-63.3-60.7c0,0-32.7-23.3-26,45.3c0,0,16.7,61.3,56.7,128.7s110,184.7,110,184.7s20-9.3,31.3,20
		c0,0,36.7,92,42,101.3c5.3,9.3,12,15.3,12,15.3s18.7,29.3,150.7,30c0,0,123.3-8.7,186.7-93.3c0,0,5.3-12,15.3-15.3L670,515
		c0,0,44-128,48-150s5-117.3-30.7-117.3c0,0-36,6.7-48.7,51.3L602,379.7c-11,27.5-22.5,52.2-36.7,62l26.7-54
		c0,0,23.3-54.7,28.7-75.3c9-18.7,22.7-68,22.7-68c0.4-4.9,1-13.6,3.2-23.7c9.7-44.9-54.5-123-79.5-40.3c-3.7,12.2-5.4,26.7-8.3,46
		L542,283c0,0-27.3,73.3-32.3,82.7c-6.2,11.5-7.4-4.9-3.7-7.7c0,0,26.7-49.7,35.3-120.3c0,0,17-69,8-105.3
		c-9.1-36.8-81.3-75.7-92.7-30.7c0,0,3,70.7,5.7,103.3c0,0-7.7,70.7-23,92.7c-15.3,22-22.7,9.3-22.7,9.3s-3.3,2.7,10-68.7
		c0,0,7.3-79.3,8-92.7c0.7-13.3,1.8-41.9-3.3-54.7c-17.7-43.8-88.2-58-94-28C333.3,88.8,335.2,114.7,340,140.7z"/>
</g>
<g id="inf_x5F_vw2_x5F_mid">
	<g>
		<path d="M378,41.7c0,0,21.3,6.7,28.7,12c0,0,5.7-2,10.3-2S390,38,378,41.7z"/>
		<path d="M500.3,78.7c0,0,21.7,6.7,28.7,14c0,0,11.3-6.7,16.3-1.7C545.3,91,502.7,65,500.3,78.7z"/>
		<path d="M630,151c0,0,13.7,9.7,17,21.7c0,0,12.7-1,18,2.7c0,0-18.7-22.7-24-26.3L630,151z"/>
		<path d="M717.3,262.7c0,0,6.7,11.3,7.7,16.3c0,0,23.7,0.3,29.3,11.3c0,0-4-13-17-26.7
			C737.3,263.7,724.3,259.7,717.3,262.7z"/>
		<path d="M21,209c0,0-2,5.5-2,14s4,16.3,4,16.3s-12.7-1-16.6,22.1c0,0-7.7-9.2,2.1-21.5c0,0-4-19,2-31H21z"/>
	</g>
</g>
<g id="inf_x5F_vw2_x5F_bfg">
	<g>
		<path d="M725.7,287.3c8.3,38.7,6.9,77.9-7,117.7l-49,138.3L646,604c0,0,10.3,1,14.3,5c0,0-0.7-5,5.3-17
			s37-69.3,37-69.3s38.1-101.2,44.3-125c6.4-24.4,11-74.5,10.7-84.7C756.9,292.8,739.7,288.3,725.7,287.3z"/>
		<path d="M727,256.3h-16l-14.3-10C696.7,246.3,715,245.3,727,256.3z"/>
		<path d="M671.3,202.3c0,0-0.7-25-21-20.7l-2.8,1c14.5,36.3,0,84.3-17.5,135c0,0,16.2-52.4,46.9-66.3L671.3,202.3z"
			/>
		<path d="M632.5,145c0,0-7.8-1-10.5,2.3l-19-8C603,139.3,613,132.3,632.5,145z"/>
		<path d="M537.7,99.3c0,0,9.3-20.3,28,26.7l5,16.4c6.1,28.7-17.9,103.9-17.9,103.9l-17.1,56l-21.3,54l14.7-47
			c0,0,35.7-145.7,34-162S547,102.7,537.7,99.3z"/>
		<path  d="M495.3,71c0,0-17.7-1-22.3,4.2l19.3,2.8L495.3,71z"/>
		<path  d="M450.3,117c4-1.1-6-48.6-21-56c-12.1-6-16.7-1.3-16.7-1.3s37.3,24,27.7,61L450.3,117z"/>
		<path  d="M451.9,158.3c0,0-0.9,70-11.2,97.3l-7.3,41.3c0,0,8-10.3,12.3-34.3
			c4.3-24,15-89.7,12.3-100c0,0,2.7,4.7,2.7,20.7s-1.3,39-4,51c-2.7,12-13.7,49-17.3,57c-3.7,8-9.7,16.3-9.7,16.3s-9,4-9.7-5.7
			s14.3-85.7,14.7-100c0.3-14.3,2-54.7,2-54.7L451.9,158.3z"/>
		<path  d="M329.3,90.7c0,0,3.1,30.8,4.3,36.7c7,33.7,10.6,75.9,1.7,125C326.4,301,323,289,323,289
			l4.7-30.7c0,0,4.3-57.3,3.3-63.3s0.4-58-4-70L329.3,90.7z"/>
		<path d="M435,297l5.5-35.4c0,0,9.5-50.6,11.4-102.6c4.4-51.5-6.9-75.3-6.9-75.3C426.5,47.8,414.5,59,414.5,59
			s30,19.5,27,60s-5.6,79.5-7.8,103s-8.2,75-8.2,75C427.5,303,430.1,305.6,435,297z"/>
		<path d="M327.5,109.5c0,0,5.1,9.5,7.5,27.9c1.2,9.1,8.5,18.1,4.5,54.6s-0.5,45.1-2.5,54.3s-5.5,35.9-12.5,44
			l2-28.8l1-67.1C336.6,167.5,329,132.5,327.5,109.5z"/>
	</g>
</g>
<g id="inf_x5F_vw2_x5F_wlt">
	<g>
		<path d="M39,186.5c0,0-16.5,19.5-8,49.5s3,17.5,13,41.5S104,389,104,389l50,87.5c0,0,35.5,61,46,72l-9,9
			c1.2-6.2-42.5-76-47.5-82.5l-71-119.5c0,0-28-52.5-38-77.5S23,244.5,23,244.5S10.5,212,30.5,189L39,186.5z"/>
		<path d="M685,249.5c0,0,29.5-7.5,35,63.5c0,0,4,47.5-21,110c0,0-23.5,76-29,89s-30,81.5-30,81.5s-2.5,7-7.5,13.5
			l13.5-3l10-31c0,0,13.6-30.5,25.5-63l23-68c15.3-38,20-50.5,28-113c0,0,0.3-63.5-28.5-79.7C704,249.3,693.5,239.5,685,249.5z"/>
		<path d="M589.5,145.5c0,0,12.5-14,31.5,0s20.3,10.5,31.5,42.5c10.9,31.2,0,61,0,61L629,320.5
			c0,0-39.5,93.5-48.5,105.5c-9,12-13.5,14.5-13.5,14.5s41.5-82.5,47.5-105s23.5-64,27-84.5s10.5-54-9-84S589.5,145.5,589.5,145.5z"
			/>
		<path d="M508,368.5c0,0-8.5,4,0-15s26-54.5,36-132c0,0,26-91-9.5-114C519,83.7,466.5,70,460,94
			c0,0-4.5,12.5-3,19.5l-5,2c0,0-4-49,40-39s58,33.5,58,33.5s19.2,24.7,11,58c-8.7,35.3-19,100.5-19,100.5S517,348.5,508,368.5z"/>
		<path d="M333.5,267c0,0-4.8,13.4-11,22.9c-8.4,12.8,4.5,8.6,11,0c0,0,7-21.9,6-30.4S342,245,342,245s4.5-11.5,2-23
			c-2.5-11.5,0.8-31,0.8-31s3.8-15.5,0-37.5c-3.8-22-8.3-58.5-8.3-66s2-27,2-27C350,36,415.5,51,430,90c9,30.5,3.5,72.5,3.5,72.5
			s-10.5,110.8-16,127.4s3.5,21.6,3.5,21.6s10.5,7,19.5-15S460,227,460,227s5.5-36,0-63.5c0,0,0.3,56-8.1,81.5
			c-8.4,25.5-16.9,52-16.9,52c-10.1,15.5-13.7,11.8-13.5-3c0,0,16.5-76,16.5-115.5c2.5-39.2,2.5-77.5,2.5-77.5
			c2-16.5-36.5-69.8-82.5-57.5c0,0-32.5,4-28.5,46.5s7,53,7,53s5.5,23.5,4,38s-1,34-2,43.5s2.5,12.5-4,28.5L333.5,267z"/>
	</g>
</g>
<g id="inf_x5F_vw2_x5F_bnd">
	<path d="M210.3,618c0,0-2.7-4-4-7.3c-1.3-3.3-16.7-32-16.7-32c-9-29.7,24-47.3,37.3-14.7l7.7,20l3,7l5.7,17
		c0,0,5,10.3,5.7,16.7c0,0,13.7,36,23,46.3s37,42,115.5,42c0,0,50.8,8.7,93.2-7.3c0,0,65-15.3,99-44.3s42-43.3,42-43.3
		c3.7-14.3,50.3-21.7,34.3,5.7L636.3,642L624,658c0,0-6,12.7-14,12.7l-15,11.7c0,0-8,13.7-16.3,13.3l-17.3,10.7l-14,9
		c0,0-8,0.3-10.7,2c-2.7,1.7-17,6.3-17,6.3s-16,12.3-19.3,13c-3.3,0.7-9.7,0.3-9.7,0.3l-1.3-12.3l7.3-9l-26.3,7.3c0,0-4.7,2-21,3.3
		c-16.3,1.3-24.7,1.3-24.7,1.3l-23.3-0.7l-25.7-2.3l-22.7-2l-20.3-6.3c0,0-15.7,2.7-34.3-8c-18.7-10.7-24.3-13-24.3-13l-5.7-2
		c0,0-12.3,6-16.3,1s-23.3-24-23.3-24l-2.3-6.7c0,0-10.3-16-13-27C210.7,625.7,210.3,618,210.3,618z"/>
</g>
<g id="inf_x5F_vw2_x5F_stch">
	<g>
		<g>
			<path fill="none" stroke="#FEE609" stroke-miterlimit="10" d="M659.7,609.3c0,0-1.3-0.8-3.6-1.8"/>
			<path fill="none" stroke="#FEE609" stroke-miterlimit="10" stroke-dasharray="8.032,2.008" d="M654.2,606.8
				c-7.7-2.7-22.1-4.6-33.2,12.2c-16,24-72,62.3-84,68s-87,33-127.7,28.7c-40.7-4.3-50.3-4-95.3-14.7c0,0-39.3-14.3-46-42.7
				l-42.7-98.7c0,0-36.6-28-37.1,10.3"/>
			<path fill="none" stroke="#FEE609" stroke-miterlimit="10" d="M188.2,571c0,1.3,0,2.6,0.1,4"/>
		</g>
	</g>
	<g>
		<g>
			<path fill="none" stroke="#FEE609" stroke-miterlimit="10" d="M318,226.3c0,0-1.4,0.2-3.9,0.9"/>
			<path fill="none" stroke="#FEE609" stroke-miterlimit="10" stroke-dasharray="8.0711,2.0178" d="M312.2,227.8
				c-6.1,2-16.4,6.6-28.8,17.2c-20,17-30.3,28.3-43,34.7l-53.6,47"/>
			<polyline fill="none" stroke="#FEE609" stroke-miterlimit="10" points="186,327.4 183,330 178,326 181.1,323.5 			"/>
			<path fill="none" stroke="#FEE609" stroke-miterlimit="10" stroke-dasharray="7.9386,1.9846" d="M182.7,322.3l21.3-16.9
				c0,0,9-6.7,16-12.7c7-6,9.3-13,30.7-24c0,0,23.7-18.3,32-26.3c0,0,16.1-15.8,33.4-20.2"/>
			<path fill="none" stroke="#FEE609" stroke-miterlimit="10" d="M317,221.9c0.3-0.1,0.7-0.1,1-0.2h3l-0.7,3.9"/>
			<polyline fill="none" stroke="#FEE609" stroke-miterlimit="10" stroke-dasharray="5.2613,1.3153" points="320.1,226.9 320,227.6 
				319.1,232.7 			"/>
			<path fill="none" stroke="#FEE609" stroke-miterlimit="10" d="M319,233.4l-0.7,3.9c-1.2,0.4-2.4,0.9-3.7,1.5"/>
			<path fill="none" stroke="#FEE609" stroke-miterlimit="10" stroke-dasharray="7.9283,1.9821" d="M312.8,239.6
				c-29,13.4-75.2,56.5-121.5,99.7"/>
			<path fill="none" stroke="#FEE609" stroke-miterlimit="10" d="M190.6,339.9c-1,0.9-1.9,1.8-2.9,2.7l-2-5.3c0,0,1.1-0.9,3-2.7"/>
			<path fill="none" stroke="#FEE609" stroke-miterlimit="10" stroke-dasharray="8.1616,2.0404" d="M190.2,333.3
				c19.3-17.1,94.9-83.6,117.3-96.6"/>
			<path fill="none" stroke="#FEE609" stroke-miterlimit="10" d="M308.3,236.3c1.5-0.8,2.8-1.4,3.7-1.6"/>
		</g>
	</g>
	<g>
		<g>
			<path fill="none" stroke="#FEE609" stroke-miterlimit="10" d="M252.3,145c0,0,0.2,1.5,0.6,4"/>
			<path fill="none" stroke="#FEE609" stroke-miterlimit="10" stroke-dasharray="7.9838,1.9959" d="M253.3,150.9
				c2.1,13.3,7.3,45.4,10.3,58"/>
			<path fill="none" stroke="#FEE609" stroke-miterlimit="10" d="M263.8,209.9c0.5,1.9,0.9,3.2,1.2,3.8"/>
		</g>
	</g>
	<g>
		<g>
			<path fill="none" stroke="#FEE609" stroke-miterlimit="10" d="M213.3,162c0,0,0.3,1.5,0.9,3.9"/>
			<path fill="none" stroke="#FEE609" stroke-miterlimit="10" stroke-dasharray="7.895,1.9738" d="M214.7,167.8
				c2.3,9.7,7.1,29.2,12,41.8c4,10.4,6.6,18.5,8,23.2"/>
			<path fill="none" stroke="#FEE609" stroke-miterlimit="10" d="M234.9,233.8c0.7,2.5,1.1,3.9,1.1,3.9"/>
		</g>
	</g>
	<g>
		<g>
			<path fill="none" stroke="#FEE609" stroke-miterlimit="10" d="M178,191c0,0,0.6,1.4,1.5,3.7"/>
			<path fill="none" stroke="#FEE609" stroke-miterlimit="10" stroke-dasharray="8.3421,2.0855" d="M180.3,196.6
				c5.4,12.9,18.4,44.5,22.7,57.2"/>
			<path fill="none" stroke="#FEE609" stroke-miterlimit="10" d="M203.3,254.8c0.6,1.8,0.9,3.2,1,3.9"/>
		</g>
	</g>
	<g>
		<g>
			<line fill="none" stroke="#FEE609" stroke-miterlimit="10" x1="140.7" y1="219" x2="142.1" y2="222.7"/>
			
				<line fill="none" stroke="#FEE609" stroke-miterlimit="10" stroke-dasharray="7.605,1.9012" x1="142.9" y1="224.5" x2="167.2" y2="285.4"/>
			<line fill="none" stroke="#FEE609" stroke-miterlimit="10" x1="167.5" y1="286.3" x2="169" y2="290"/>
		</g>
	</g>
	<g>
		<g>
			<path fill="none" stroke="#FEE609" stroke-miterlimit="10" d="M280.3,87c0,0-1.4,0-4,0.2"/>
			<path fill="none" stroke="#FEE609" stroke-miterlimit="10" stroke-dasharray="8.1472,2.0368" d="M274.3,87.3
				c-16.2,1.1-60.8,5.6-81.6,23.7c0,0-22,12.3-52,36c0,0-38.4,35.9-47.6,55.6"/>
			<path fill="none" stroke="#FEE609" stroke-miterlimit="10" d="M92.6,203.5c-0.6,1.4-1,2.6-1.3,3.8h3c0,0,0.8-1.2,2.3-3.2"/>
			<path fill="none" stroke="#FEE609" stroke-miterlimit="10" stroke-dasharray="8.0292,2.0073" d="M97.9,202.5
				c11-14.9,45.7-59.8,71.1-69.5c0,0,33.3-21.7,38.7-25c5.3-3.3,42.7-19.7,104-21l5.3,4"/>
			<path fill="none" stroke="#FEE609" stroke-miterlimit="10" d="M317.8,91.6L321,94v5c0,0-1.5,0.1-4,0.3"/>
			<path fill="none" stroke="#FEE609" stroke-miterlimit="10" stroke-dasharray="8.0528,2.0132" d="M315,99.5
				c-12.3,1.1-40.1,4-48,8.2c-10.3,5.3-23,7.7-23,7.7s-46.3,11.7-66,35.3c0,0-23.3,15.3-48.3,40.3c-15.1,15.1-23.3,23.2-27.4,27.2"
				/>
			<path fill="none" stroke="#FEE609" stroke-miterlimit="10" d="M101.5,218.9c-2.1,2.1-2.9,2.8-2.9,2.8l-4-6.3c0,0,1-1.1,2.8-2.9"
				/>
			<path fill="none" stroke="#FEE609" stroke-miterlimit="10" stroke-dasharray="8.0543,2.0136" d="M98.9,211
				c10.8-11.1,39.9-40.4,52.8-49c16-10.7,26.3-21,26.3-21s51.9-43.3,135-46.2"/>
			<path fill="none" stroke="#FEE609" stroke-miterlimit="10" d="M314,94.8c1.3,0,2.7-0.1,4-0.1"/>
		</g>
	</g>
</g>
<g id="inf_x5F_vw2_x5F_lce">
	<g>
		<path  d="M52,160.7l4.3-2.3c0,0,8.7-14.7,34.3,21.7c0,0,0.3,5.7,4,7c3.7,1.3,8-19.7,8-19.7V152
			c0,0-1.7-15.7-12.3-26.7L84,123l-12,8l-1.3,6c0,0-6.3,0-7.7,2c-1.3,2-9.3,11.7-9.3,11.7S50,156.3,52,160.7z"/>
		<path  d="M97.3,119.3c0,0,17.7,12.1,12,35.7c0,0-1.1,5.6,1.1,8.3l15.2-8.3c5.5-30.5-0.8-46.6-16.7-51l-11.7,7
			C97.3,111,94.3,116.7,97.3,119.3z"/>
		<path  d="M141.7,91.3c0,0,15.3,23,5,47c0,0-14.7,5-19,5.3V135c0,0,8.4-16.3-6.6-33v-6c0,0,11-5.7,12.7-7.7
			C133.7,88.3,138,89,141.7,91.3z"/>
		<path  d="M166,70.7c0,0-7,3.3-12,5.3s-3.8,8.7-3.8,8.7s8.4,16,2.8,35.7l-2.8,7.3c0,0,12.8-5.3,16.8-4.7
			S186,93,166,70.7z"/>
		<path  d="M176.2,70.7c0,0,7.5,27.3,0,37.3c-7.5,10-0.8,1.7-0.8,1.7s-0.7,4.2,4.2,3.3s15.8-4.9,15.8-4.9
			s12.3-12,1.7-46c0,0-4.7-5.7-8-4.3c-3.3,1.3-10,5.7-12.8,5.7V70.7z"/>
		<path  d="M223.7,93.7c0,0-12.7,6.7-17.3,7.3c-4.7,0.7-5-5.7-5-5.7s13-12.3,8-36.3l2.3-9.7l15.7-3.7
			C230.6,45.7,234.5,78.6,223.7,93.7z"/>
		<path  d="M250,40.3h15l6-2l13.3-1.3c0,0,2.3,0.3,4,1.7L305,37c0,0,9,6.2,1.3,48.3l-17,1.4l-1.3-5c0,0,3.3-31-0.3-36
			c-3.7-5-15.3,42.7-15.3,42.7L257,85.3c0,0-0.7-4.9,0.7-11.9c1.3-7-9.7,17-9.7,17h-17.2c0,0-7.9-2.7,0-7.3c0,0,8.9-26.7,11.6-32
			C245,45.7,246.7,40.3,250,40.3z"/>
		<path  d="M345.7,45.7h-14.3c0,0-2,16.7-2.3,19.7l-6.7,6l1.3,10.7c0,0,6.3,6.9,26,3.3l4.3,43.1c0,0,8.3,12.3,17.7,0
			c0,0-2.3-43.3-3.7-52l-2.7,2.7c0,0,2.3-10.3-11.3-15.3L337.3,63C337.3,63,337.7,48.3,345.7,45.7z"/>
		<path  d="M366.3,270.7c0,0-6.7,1-8.3,3s-5.3-5.7-5.3-5.7l4.7-38.7c0,0,7.7-6.3,14.3,0c6.7,6.3,0,1.7,0,1.7
			S370.7,259,366.3,270.7z"/>
		<path  d="M404.3,87.3c0,0-2.3,18-3.7,21.3l15.3,22c0,0-2,2-10.3,0l-5,5.7c0,0,5.3,7.7,7.7,13.7c2.3,6,23.3-5,23.3-5
			s31.7,19,44.7,24.3c0,0,8.3,2.3,11.7-10.3l-5.3-7c0,0-21.7-8.7-28.7-13.7c0,0,22.3-9.3,27.3-16c5-6.7-5.3-12.3-5.3-12.3l-8-0.7
			c0,0-17.3,11-28.7,11.7L412,89.7L404.3,87.3z"/>
		<path  d="M295.3,355.3c0,0-4.3,11.4,4.3,13.5c0,0,24.3-14.5,31-25.5l-2-13.7h-7L295.3,355.3z"/>
		<path  d="M260.7,383.7c0,0,8-4.7,7.7,12.3c0,0-23,19.7-28.3,21.3c-5.3,1.7-8.7-13.3-8.7-13.3S226,403.3,260.7,383.7
			z"/>
		<path  d="M517.7,123.3c0,0-12.7,6.3-6.3,33l6.3,17h-4.1l4.1,17l11.3,3c0,0,22,30.3,45.7,34.3c0,0,7.3-9,10-6.7
			c0,0,1.7-9-3.7-10.7c-5.3-1.7-19-10-27.7-18.3l25-1.3c0,0,10.3-0.3,15.3-8.7s-5.3-15-5.3-15H584c0,0-31.3,4.3-44,1l-11-34
			C529,134,527.3,126,517.7,123.3z"/>
		<path  d="M615.3,205.3l-12,15.7c0,0-21,60.3,33.3,98.3c0,0,7.3,5.3,7-11.3c0,0-20.3-15.7-20.3-30.3
			c0,0,29,14.3,42.7,12c0,0,5-3,6.7-11.7c1.7-8.7-8.3-10.3-8.3-10.3S635,264.3,617,247c0,0-6.7-20,4.3-34
			C621.3,213,623.7,209,615.3,205.3z"/>
		<path  d="M660.3,346c0,0-48.3,49.3-24.3,68c0,0-37.7,21.7-27,54c0,0-32.7,16-27,45.7c5.7,29.7,12.7-5,12.7-5
			s14.7-26.3,23-36.3c0,0,4-32.3,22-49.7l4.7-23.7c0,0,7.3-26.3,20-36C664.3,363,664.7,352.3,660.3,346z"/>
		<path  d="M578.7,429.7v13.7c0,0-12.7,21.3-15,29C563.7,472.3,548,460,578.7,429.7z"/>
		<path  d="M543.3,504c-15.1,8-16.3,26.4-12.7,48.3c0,0-6,26,11,53c0,0-13.3,20.7,15.7,47.7c0,0-10.7,30,6,52.3l2.3,4
			L578,701v-6c0,0-9.3-6.7-8.7-37.3l-2.7-9.3c0,0-16.8-24-13.3-41.7l-3.4-17.3c0,0-8-26.3-7-37.7c1-11.3,1.7-25,4.3-34.3
			C550,508,543.3,504,543.3,504z"/>
		<path  d="M595.3,641.7c0,0-4.7,18,14,29.7c-0.5,6.1-3.4,10.3-10,12c-9,0.7-26.6-32.7-18.3-46.7
			C585.8,628.6,595.8,635,595.3,641.7z"/>
		<path  d="M616.7,613.3c0,0,3.3,0.3,4.3,6c1,5.7,8.3,11,21.3,10s11,0.1,11,0.1s-3.3,8.2-15.3,13.2
			c0,0,5.3,2.2-11.7,15.4c0,0-28.3-6.8-26.3-41.4C600,616.7,605,596.3,616.7,613.3z"/>
		<path  d="M536.7,672.7c0,0-4.7,37.3,0,46.3c0,0-4.7,7.7-13.7,9s-1.7-51.7-1.7-51.7l6.3-5.3c0,0-19.6-4.7-29.3-35.7
			l-6.3-2.5l-34-22.5l-3-2.3l-36.3-11c0,0-13.3-7.3,0-13.7c0,0,21,2.7,43,13c22,10.3,39.3,24,39.3,24l5.3,7l32.3,42.7L536.7,672.7z"
			/>
		<path  d="M412.7,632.3c0,0,19.6-2.7,50.9,8.3c0,0,9.7,10.4-2.7,15c0,0-28-9-42.3-8.7
			C418.7,647,406.8,640.7,412.7,632.3z"/>
		<path  d="M329.7,603c0,0-10.7,5.3-3.7,15c0,0,22.3,4.8,32.3,14c0,0,14.7,1.3,6.7-12.7C365,619.3,344,603,329.7,603z
			"/>
		<path  d="M345.5,564c0,0-9.5,6.3,1.8,11.7c11.3,5.3,24,9.3,24,9.3h6c0,0,10,4,4-8.7
			C381.3,576.3,361.7,563.7,345.5,564z"/>
		<path  d="M289.7,530.3c0,0,19.7,22,21,23.3c1.3,1.3,7.3,2.7,7.3,2.7s1.7-25-30.7-31.7L289.7,530.3z"/>
		<path  d="M270.3,528.7c0,0,33,20.3,21,50c0,0-5,0.3-7-3.9c-2-4.1-11.3-28.8-17-36.1
			C261.7,531.3,270.3,528.7,270.3,528.7z"/>
		<path  d="M286,287.7l-2,14l13.3,10l-9.3,9.7l-8.7-6.3c0,0-7.3,9-7.7,20l-14.3,10.7c0,0,0.3-15.3,9.7-37.7L286,287.7
			z"/>
		<path  d="M213.7,353l18.7,11.7l-11.3,11l-11-7.2c0,0,9.7,12.8,0,19.5c0,0-23-29.3-28.3-32.3c-5.3-3,0-16,0-16
			s7,2,24.1,19L213.7,353z"/>
		<path  d="M215.7,218l-8,14.3H201l7.3,24.7l15.3-14.7v-4.8C223.7,237.5,217.7,219.7,215.7,218z"/>
		<path  d="M32.3,187.1L45.7,176c0,0,25-0.7,34,24.7L77,203c0,0,62.6,49.3,36.6,61.3l-11-8.7c0,0-19.7-31-35.7-35.5
			l-6-7.8L53.7,196c0,0-2.3-4,1.3-7C55,189,54,184.1,32.3,187.1z"/>
		<path  d="M22,196c0,0-12,14.3-14.3,27S0,209.5,0,209.5s0.3-15.8,11-17.2L22,196z"/>
		<polygon  points="24.3,306 18.7,316.7 52.7,363.8 		"/>
		<path  d="M93.3,282.3l4.7,15.3c0,0,32.3,37.7,38,57c0,0,2.3,5.7,7.7,6.3c5.3,0.7,27.3,36.3,29,45.7
			c1.7,9.3,9.3,10.8,9.3,10.8s20.7,17.2,30,37.9c0,0,14.9-21.7-32.7-53.3c0,0-4-38-34-50.3l-8.7-7.3C136.7,344.3,143,313,93.3,282.3
			z"/>
		<path  d="M179.7,588.3l-23.7-32c-10.3-15.8-19-9.1-11.3,5.7l24.7,41c0,0-37.3-24.7-44.7-28.2l-2,4.9
			c0,0,39,30.4,49,37.9c0,0-1.3,29.8,15.7,30.8c0,0,1.7,14.2,36,10.9l-6-11.2l-3.3-10c0,0,29.8,8.7,51.4,2.7l4.6-6.7
			c0,0-4.5-6.7-4.6-10.7c-0.1-4-6.7-1-6.7-1s-21,11-46.3-3l-8.7-8.7c0,0,39,1.3,49.7-11c0,0-1.3-9.8-2.3-14.1h-5.7
			c0,0-16.7,8.4-38.3,9.7c0,0,28.3-4.9,31-18.3c0.3-1.7-3.7-20.7-5.7-23.3s-5,5-5,5s8.3,14.9-39.7,20l-4-5.7
			C183.7,573,178.3,578.3,179.7,588.3z"/>
		<path  d="M226.3,663c0,0,2,11.7,14,12s25,0.7,36.7-9.7c0,0,5-2.6,6-5.6s9.7,5.6,8.7,11c-1,5.3-18.7,21.7-49,16
			l12.7,9c0,0,35,5.3,55.7-15.3l3.7-2.7c0,0,15.3,3.7,11.3,11.7s-39.3,28-62.7,16l-22.7-19.7c0,0,2,15.2,5.3,23.4
			c0,0-1.7,3.6-5.3,5.3c-3.7,1.7-12-10.7-14.3-41V663z"/>
		<path  d="M358.3,693c0,0-14.3,22.7-31.7,25l-5-1.7c0,0,1,7.4,21,11.7c0,0,23.3-11.7,28.7-24.7
			C376.7,690.3,358.3,693,358.3,693z"/>
		<path  d="M501.3,692.8c0,0-2.3,24.9-10.7,31.6c0,0-11.3,1.3-17,2c-5.7,0.7-6.4-2-6.4-2s12.7-1.7,17-28
			C484.3,696.3,489,683.5,501.3,692.8z"/>
		<path  d="M439.2,702c0,0-4.5,19.7-14.5,26H420c0,0,1.7,7.6,23,5.6c0,0,14-11,14.7-33.3
			C457.7,700.3,447.3,682.6,439.2,702z"/>
		<path  d="M414.3,698l-9.7-3.3c0,0-2.7-2.7-8,7.3c-5.3,10-13,21-19.3,23h-8c0,0-0.3,5,14.7,7l7.8,2
			c0,0,9.6-2.7,20.9-27.3C412.7,706.7,415.7,707.3,414.3,698z"/>
		<path  d="M743,270c0,0-19.5-19.5-27-21s-14.5-3-14.5-3s10.5-21,28-16s13.5,11,13.5,11s5,4,7,11S743,270,743,270z"/>
		<path  d="M672.9,203.5c0,0,6.1-24.5-30.9-51.5l-3-3.5c0,0,19.5,8.5,36.5,27.5s6.7,49.5-2.6,48
			C663.5,222.5,672.9,203.5,672.9,203.5z"/>
		<path  d="M552.3,98l8.2,13.5l5,8C565.5,119.5,565.1,94.5,552.3,98z"/>
		<path  d="M412.5,47.1c33.5,7.6,31.8,30.4,31.8,30.4L434,66l-13.5-10.5L412.5,47.1z"/>
		<path fill="#179B48" d="M238,577c0,0,4.3,6,9,16s11,24.5,11,24.5s-2.3,6.8,0,11.8c2.3,5,14,20,14,20l-8.3,12.3
			c0,0-8-5.9-10.7-17.8s-5.3-23.7-5.3-23.7s-8.1-25.6-14.1-39.5L238,577z"/>
	</g>
</g>
<g id="inf_x5F_dwelt_x5F_inside">
	<image overflow="visible" width="775" height="737" xlink:href="B3E5329C.png"  transform="matrix(1 0 0 1 0 0.3512)">
	</image>
</g>
</svg>
