<?xml version="1.0" encoding="utf-8"?>
<!-- Generator: Adobe Illustrator 23.0.0, SVG Export Plug-In . SVG Version: 6.00 Build 0)  -->
<svg version="1.1" xmlns="http://www.w3.org/2000/svg" xmlns:xlink="http://www.w3.org/1999/xlink" x="0px" y="0px"
	 viewBox="0 0 290.6 350" enable-background="new 0 0 290.6 350" xml:space="preserve">
<g id="inf_x5F_v3_x5F_bfg">
	<path  d="M195.4,111.8c0,0,2,18.1,2,26.2s-2,17.8-2,17.8s-20.4,34.6-21.2,62.7v2l-6.7,0
		c-2.5-42.9-0.9-69.7,4.5-112.9c0.6-7,3.9-52.1,4.7-62.2s2-22.9,2-22.9l0.8-12.3c3.1-0.6,9.9,2.4,16.4,5l1.4,2.2v9.2
		c0,0-2.5,3.1,0,9.2v5.6v5V53c0,0,0.6,13.9,0,18.4l-3.3,0.8v5c0,0,1.9,3.9,3.6,5c0.4,5.8,0.6,11.4-1.4,14.8l-2.5,0.8
		c0,0-1.4,2-0.6,8.1C194,112.1,195.4,111.8,195.4,111.8z"/>
	<path  d="M141.6,28.2c0,0,1.1-9.6,4.7-13.1c4.4-4.3,12.6-5.4,12.6-4.7l-6.8,24.3c0,0-7.4,35.1-7.9,41.8
		c-0.6,6.7-6.8,33.2-5.6,47.7s2.6,50.7,1.2,65.5l0.9,28.4l-18.5,1.4C96.6,167,100.9,43.2,118.2,17l10.8-0.5c0,0,2.8,0,1-1.7
		c-1.8-1.7-1.7-3.4-1.7-3.4C137.4,15.1,143.2,20.2,141.6,28.2z"/>
	<path  d="M80.3,231.4c-1.2,0-6-16.2-13.4-38.7C48.1,135.7,53.3,83.2,68,45.2c0,0,5.9-1.7,7.8-3.9
		c2-2.2-2.4-4.7-2.4-4.7s11.7-0.8,15,3.9L85,47.4c0,0-4.6-2.2-8.7,2.5L75,54.6l3.9,3.3l3.3-1.7c0,0,6.4-19.2,11.4-25.4
		s5.3-4.5,5.3-4.5S87.8,44.1,84.3,82.6c-3.6,38.5-2.7,47.3-2.7,47.3l0.2,9c0,0,3.8,35.5,8.4,54.8s5.9,30.3,5.9,30.3L80.3,231.4z"/>
	<path  d="M19,167.7v-18l3.6-20.9l4.2-22.4L32.7,80c0,0,7.9,2.4,9.3-9.1l7.9-10l-11.5,87.4c0,0,23.6,84.9,28,92.4
		c0,0-10.9,10-11.7,16.7c-0.8,6.7,11.7,41.4,11.7,41.4l-4.4,6.1l-7.3-11.7l-3.8-0.8l-3.1-4.8l-1.5,0.2L45,271.8l-4.2-19l0.6-2.7
		l-4.6-7.3c0,0-0.8-18.8-10.9-26.1l-4.8-6.3l-0.2-37l-4.4-0.8L19,167.7z"/>
	<path  d="M71.1,325.5c0,0-2.3,8.6-7.9,2.9s-5.9-8.2-5.9-8.2l2.7,1c0,0,3.1-1.9,2.7-4.2c-0.4-2.3,1.5-2.1,1.5-2.1
		L71.1,325.5z"/>
	<path  d="M240.3,199.3l-36,47.1l-1.4,6.4c0,0,8.1,7,6.7,24l7.8-19c0,0,17-25.1,19-37.4S240.3,199.3,240.3,199.3z"/>
	<path  d="M19.4,238.1c0,0,0.2,6.6,3.6,11.4c0,0,2.3-1,3.1,7.3l-1.5,1.3c0,0,4.6,11.1,4.8,12.5h1.7
		c0,0,3.1,1.7,3.3,8.4c0,0,2.4,9.6,3.9,12.3l2.6-6.3C41,284.9,23.6,239.3,19.4,238.1z"/>
	<path  d="M275.1,114.1l-1.7,1.2c0,0-1.5,10.1-5.4,20.5s-6.8,19.4-6.8,19.4l-2.5-4.7c0,0,13.1-33.6,12.3-48.5l1.2-4
		l4.4,5.4L275.1,114.1z"/>
</g>
<g id="inf_x5F_v3_x5F_mid">
	<path stroke-miterlimit="10" d="M177.6,9.5c0,0-13.4-3.1-19,0c0,0-3.6,8.9-5.6,18.1
		s-4.2,23.7-6.4,33.2c-2.2,9.5-8.1,35.7-7.8,50.7c0.3,15.1,1.1,39.9,1.1,39.9v28.4c0,0-0.6,31.8,0,36.8l25.9,3.9l-0.8-19
		c0,0-0.3-49.6,2.5-70.3s5-50.2,6.4-64.7c1.4-14.5,3.6-51.9,3.6-51.9V9.5z"/>
	<path stroke-miterlimit="10" d="M100.9,24.5c0,0,6.4-7.2,17.3-7.5c0,0-9.5,14.5-10.9,56
		s-2,51.3-2,51.3l0.8,36l12,58.5l-23.1,5.6c0,0-12-63.8-12.3-75c-0.3-11.2-4.5-58,4.5-76.4l10.9-47.1L100.9,24.5z"/>
	<path stroke-miterlimit="10" d="M64.4,244.8l15.3-12.5l-12-32.6c-15.3-52.8-20.9-111.2,0-153.9
		C71,44,51,55.2,51.9,56.6L40.4,90c0,0-10,42.4,0,74.2c0,0,3.1,17.8,7.8,37.1L64.4,244.8z"/>
	<path stroke-miterlimit="10" d="M32.7,80l-6.3,28.5l0.4-13.2C26.8,95.3,27.1,87,32.7,80z"/>
</g>
<g id="inf_x5F_vw3_x5F_wst">
	<path fill="#7DC243" stroke="#000000" stroke-miterlimit="10" d="M202.8,252.7c0,0,11,8.8,4.6,29.3s-19.9,47.4-20.5,51.3
		c-3.2,20.6-110.1,11-110.1,0c1-17.1-6.3-38.4-15.6-60.7c13.2,4,27.8,6.9,43.3,9.1C138.7,281.1,189.7,283.7,202.8,252.7z"/>
</g>
<g id="inf_x5F_vw3_x5F_wlt">
	<path  d="M167.8,217.4c0,0-2.5-49.6,0-63c0,0,1.1-20.4,2.5-27.9c1.4-7.5,1.7-19.8,1.7-19.8s3.6-36.5,4.5-46.6
		s3.6-43.8,3.6-43.8s0.3-5.3,0-6.7s-3.9,0-3.9,0l-2.7,37.9c0,0-2.3,34.8-4.5,50.2c-2.2,15.3-5,55.8-5,55.8s-1.7,37.6,0,48.8
		l-0.7,15.1l4.6,1.7V217.4z"/>
	<path  d="M138,215.5c0,0-0.6-58.5,0-70.5c0.6-12-2.8-44,7.3-85.9l10.5-50h3.1l-10.6,49.1c0,0-12.6,58-7.3,86.4
		c0,0,0.8,34.3,0,39.3c-0.8,5,0.8,35.1,0.8,35.1L138,215.5z"/>
	<path  d="M120.2,17c-14.2,12-22.6,139.4,0.6,199.3l-4.2,1.1c-12.3-45.2-15.1-78.9-10.9-151.9
		c2.7-26.4,6.2-42,10.6-48.5H120.2z"/>
	<path  d="M102.3,24.5C96,33.2,92.1,49.7,88.6,67.2c0,0-10.6,44.9-4.5,81.4c6.1,36.5,12.8,72.8,12.8,72.8l-2.2,1.4
		l-4.5-24c-4.5-19.4-6-37.8-8-50.5c-7.4-37.6,5.8-105.9,17.5-123.8H102.3z"/>
	<path  d="M69.1,45.4c-25,53.2-14.6,115.9,11,182.9l-2.6,2.8c0,0-28.2-65-25.6-110.7c1.7-53.8,11.6-72.3,13.9-75H69.1
		z"/>
	<path  d="M40.4,195.4c0,0,10.6,44.9,16.4,53.5l-1.4,3.6c0,0-10-21.5-15.1-50.5C39.7,197.8,40.4,195.4,40.4,195.4z"/>
	<path  d="M65.9,242.5c-0.1-0.8-18.5-37.1-23.5-63.3s-5.9-42.9-5.9-42.9S36.1,97,51.2,60.2l-6.6,12.5
		c0,0-8.6,34.6-10.3,50.9s4.2,47.8,4.2,47.8l11.5,40.4l12.5,32.9L65.9,242.5z"/>
	<path  d="M197.4,138.3c0,0,2.2,7.2,1.4,15.3l-4.2,1.7L197.4,138.3z"/>
	<path  stroke="#000000" stroke-miterlimit="10" d="M32.8,80L27,105.8C27,105.8,27.6,82.8,32.8,80z"/>
	<path  d="M232.4,163.1c0,0-4.4,10.9-4.1,13.5l2.1,2.8l2.8-13.8L232.4,163.1z"/>
</g>
<g id="inf_x5F_vw3_x5F_bnd">
	<path d="M78.3,331.9l-0.5-0.5L78.3,331.9l2.3,2.5c19.9,12.8,102,12.1,106.8-2.8c0,0-0.9,3.6-1.5,6.5
		c-24.4,21.8-107.5,4.4-108.1-1.9l-4.1-1.8c-5.5,1.8-10.4-4.6-10.4-4.6l-5.7-10.7c-0.2,1.1,10.4,17.7,13.8,7.2
		c2.4-7.3-6.2-26.1-6.2-26.1s-19.5-33.7-10.5-49.3s42-29.3,42-29.3c28.3-6.8,54.9-8.8,78.4-2.5l11.3,1c0,0,19.9,13.4,17.8,27
		s-15.1,24-15.1,24l-10.2,5c0,0-30.1,7.3-56,6.9s-59.4-8.2-59.4-8.2s22.4,43.7,15.3,54.8c-0.4,0.6-0.7,1.1-1.1,1.6"/>
</g>
<g id="inf_x5F_vw3_x5F_logo">
	<path stroke="#000000" stroke-miterlimit="10" d="M116.5,302.6c-1.4-0.8,5.4-7.8,5.4-7.8L154,291
		c0,0,18-3.2,18.8-3.5s16.9,0,11,13.5c-5.9,13.5-33,23-33,23l-5.5,0.6l-4,10.7c0,0-14.4,0.8-16,1L137,305l14.6-2.8
		c0,0,2.4-0.4,1.5,2.4c-0.8,2.8-5.2,12.1-5.2,12.1s12.3-2.4,18-10.9c5.7-8.5-3.1-7-3.1-7l-26.9,3.9
		C136,302.7,117.9,303.4,116.5,302.6z"/>
	<path  stroke="#000000" stroke-miterlimit="10" d="M116.3,318.5c-1.5-0.4-4.9-4.9,0.9-9.6c0,0,8.4-2.4,3.2,9.6
		c-5.2,12-11,10.3-11,10.3s-2,2.1,0,3.1c2,1,11.4-2.4,11.4-2.4s10-6.3,8.9-14.5s-11.8-9.8-11.8-9.8c-16.7,0-16.6,21.7-0.1,16.4
		C121.1,320.2,120.4,319.1,116.3,318.5z"/>
</g>
<g id="inf_x5F_vw3_x5F_web">
	<path  d="M240.3,173.7l-16.2-24.5l7.2-6.7l-14.5-18.8l-1.7,9.3c-3.1-6.7-18.7-21.5-20.6-22.9s0-3.6,0-3.6
		c7.2-2,6.4-8.1,6.4-8.1l-4.2-1.4c0.8-2.5,0-16.2,0-16.2l6.5,0.3c3.6-3.9,1.4-8.1,1.4-8.1l2-1.1c10.9,4.5,22.3,20.4,22.3,20.4
		c2.5-5.6,4.5-28.7,4.5-28.7c-23.7-25.9-34.4-22-34.4-22s-1.6-2.2,0-3.6c1.6-1.4,3.7-9.5,3.7-9.5H199v-5.9V17l1.8-7.9L199,7.2
		l8.7,3.1l24.7,10l4.9,4.2c0,0,2.5-1.1,11.7,7.8s22,42.4,22,42.4l-1.1,17c5.6,24.5-11.2,58.8-11.2,58.8s1.4,3.1,2.5,4.7
		c1.1,1.7,0,3.1,0,3.1l-3.9,8.4l-11.2,3.3L240.3,173.7z"/>
</g>
<g id="inf_x5F_vw3_x5F_plm">
	<path  stroke="#000000" stroke-miterlimit="10" d="M197.7,139.1c0,0,1.7,10,0,14.5c0,0-21.5,32.9-23.7,65.2
		c14.4,1.7,25,10.3,30.4,28.2c15.3-7,39.5-37.1,35.7-47.1c-1.8-4.8-2-9.8-2-9.8l-14.2-19.5l-14.8-21.7
		C209.1,148.9,202.9,140.5,197.7,139.1z"/>
	<path  d="M226.1,155.3l12.1,15.2l-0.5,6.2l-6.4,4.2l-7.5-10.3C223.9,170.6,227.7,169.2,226.1,155.3z"/>
</g>
<g id="inf_x5F_vw3_x5F_stch">
	<path fill="none" stroke="#F04E23" stroke-miterlimit="10" stroke-dasharray="8,2" d="M53.1,255.1c0,0,17.3-36.5,80.4-39.4
		c0,0,24.9-2.2,41.1,2.9"/>
	<path fill="none" stroke="#F04E23" stroke-miterlimit="10" stroke-dasharray="8,2" d="M198.3,157.2c0,0-18.3,37.9-20.8,61.7
		c0,0,21.6,1.3,26.5,25c15.3-8.8,24.7-15.2,32.3-32.6C211.6,224.4,200,200.6,198.3,157.2z"/>
	<path fill="none" stroke="#F04E23" stroke-miterlimit="10" stroke-dasharray="8,2" d="M180.6,219.4c-3.5-7.3,16.8-53.9,16.8-53.9
		c-0.4,31.3,11.4,59.7,35.7,49.6c-5.5,11.1-15.9,19.3-28.6,26"/>
	<path fill="none" stroke="#F04E23" stroke-miterlimit="10" stroke-dasharray="8,2" d="M237.5,36.2c8.6,15.6,0.7,64.8-9.1,71.9"/>
	<path fill="none" stroke="#F04E23" stroke-miterlimit="10" stroke-dasharray="8,2" d="M231.1,39.2c0,0-14.2-13.1-26.5-15.9v-4
		l11,3.5"/>
	<path fill="none" stroke="#F04E23" stroke-miterlimit="10" stroke-dasharray="8,2" d="M250.5,74c-2.8,20.1-5.1,35.2-12.3,50.5"/>
	<path fill="none" stroke="#F04E23" stroke-miterlimit="10" stroke-dasharray="8,2" d="M221.8,100.6c0,0-10.2-10.3-13.5-10.7"/>
	<path fill="none" stroke="#F04E23" stroke-miterlimit="10" stroke-dasharray="8,2" d="M223.9,101.2c0,0-11.3-11.3-15.6-14.1
		l-1.1,8.8c0,0,21.3,18.1,25.9,31.8"/>
	<path fill="none" stroke="#F04E23" stroke-miterlimit="10" stroke-dasharray="8,2" d="M241.1,141.9c0,0-11.8-27.7-15.8-32.1
		c-3.9-4.3-17.1-14.6-17.1-14.6"/>
	<path fill="none" stroke="#F04E23" stroke-miterlimit="10" stroke-dasharray="8,2" d="M259.4,88.6c-1.8,3.4-8.9,47.1-14.2,52.3"/>
	<path fill="none" stroke="#F04E23" stroke-miterlimit="10" stroke-dasharray="8,2" d="M269.9,89.9c0.9,22.7-4.5,46.8-16.6,64.7"/>
	<path fill="none" stroke="#F04E23" stroke-miterlimit="10" stroke-dasharray="8,2" d="M198.1,262.5c6.1,11.3,8,22.9,3.5,35"/>
	<path fill="none" stroke="#F04E23" stroke-miterlimit="10" stroke-dasharray="8,2" d="M202.3,257.2c0,0,9.1,10.6,3.8,27.6"/>
</g>
<g id="inf_x5F_vw3_x5F_lce">
	<g>
		<path  stroke="#000000" stroke-miterlimit="10" d="M133.2,29.7c0,0-2.1,2.3-1.5,4.8s1.5,3.3,1.5,3.3h4.8l1.3-4.1
			c0,0,1.7-1.4,0.8-4.1H133.2z"/>
		<path  stroke="#000000" stroke-miterlimit="10" d="M85.6,47.9c0,0-4.9-2.1-8.9,1.7s1.3,8.2,1.3,8.2s1-1,4.2-1.7
			l1.3-3.5L85.6,47.9z"/>
		<path  d="M199.9,8.6c0,0-3.1-3.3-10-2.1c-0.6-4.8-25.5-10.7-40.1-0.3l-3.1,5.3c0,0-1.3,2.3,1.3,3.6l2.3-1.9
			c7.7-5.2,30.1-5.4,37-0.8c4.8,4.4,10.2,2.7,11.1,4.2C198.2,16.5,200.3,10.5,199.9,8.6z"/>
		<path  d="M129,12.5c0,0,2.3,3.3,0,4c-2.3,0.6-5,0-5,0l-4.2,0.3c0,0-18,4.1-22.4,10l-2.3,4.2c0,0-4.2-1,0-7.9
			S121.5,6.5,129,12.5z"/>
		<path  d="M50.6,59.4c0.3-1.6,13.7-13.6,20.3-15.3c9.5-4.2,4.2-6.7,4.4-6.3c-5.2-2.5-16.5,3.3-22.1,11.9
			C51,57.1,50.6,59.4,50.6,59.4z"/>
		<path  d="M36.2,80.5c0,0,7.1-2.9,5.6-8.4s-1.3-9-9-10c0,0-4.2,3.6-4.4,6.1c0,0-16.7,13.8-18.6,21.3v2.1l1.9,6.3
			l3.3-1.1c0,0,11.9-16.9,15.9-19.2L36.2,80.5z"/>
		<path  d="M245,16.5L256.3,46v-5.4c0,0,3.6,0.2,6.9,7.3c0,0-0.8,5.6-3.6,7.7l1.7,3.3l3.8,1.5l-2.5-2.7
			c0,0,1.7-4.3,0.8-5.6s2.5-0.6,5.2,4.8v3.6c0,0,2.5,1.9,4.2,7.9l-1.5,2.7l2.7,1.3c0,0,1.3,6.5,2.7,10.5s0,1.7,0,1.7
			s2.7,7.7,10.9,15.3l1.5,2.1l0.8,3.6l-4.2,3.8c0,0-2.1,10.9-4.8,21.3c-2.7,10.5-5.9,24.3-5.9,24.3l-4.4,3.6l-1.7-2.5l-0.2-3.1
			l9.4-38.1l-2.7-2.3c0,0-1.9-5.2-1-7.7c0.8-2.5-3.3-3.8-3.3-3.8l-2.1-13.4h-2.9c0,0,4,9.4,0.2,12.1S263,97,263,97l-10.2-22.2
			c0,0-0.8-1.7-3.6-0.6l-4.2-9.6c0,0,2.9,0,4.4,0.2c1.5,0.2-2.9-6.7-2.9-6.7s-4.4-13,1.7-8.6c6.1,4.4,5.9,5.9,5.9,5.9L239.8,23
			l1.9-5.4L245,16.5z"/>
		<path  d="M245.7,84.3c0,0,5.9,14.6,5.9,20.9v1l11.1,6.3c0,0,0.6,7.1-2.1,7.1s-4.2,0-4.2,0l2.9,9
			c0,0-2.7,7.7-5.1,8.8c-2.4,1-1.6-1.3-1.6-1.3s-0.8-8.8-4.8-16.7s-2.1-7.3-2.1-7.3l-7.9-3.8v-7.9l4.8,0.8l-2.7-10l1.5-4.8l2.1-3.3
			L245.7,84.3z"/>
		<path  d="M239.8,140.5c0,0-1.3-4.4-10-17.1c-8.8-12.8-26.1-25.3-26.1-25.3l-2.5,3.6v-3.6c0,0-9.4-0.2-8.8,1
			c0.6,1.3,0,4.2,0,4.2l1.1,3.1l5-1.7l18.6,18l1.5,2.1c0,0-4.2,13.4-2.4,18.8l-8,5.4l1.5,3.6c0,0-0.8,2.3,2.3,4.4l6.1-3.3
			c0,0,3.1,18.8,2.7,21.3c-0.4,2.5,3.3-1.5,4.8-4.4c1.5-2.9,1.5-6.1,1.5-6.1s0-9-2.1-15.3l3.3-2.1c0,0-2.5,2.7,1,7.7
			c3.6,5,8.6,3.3,8.6,3.3l4.8-1.9l6.7,10.5c0,0-13.6,12.5-17.4,13.6c0,0-1.5,4.4,0.4,9.2c0,0,7.7-3.1,9.8-4.6
			c2.1-1.5-4.4,10.9-4.4,10.9v3.6c0,0,2.9,0.6,5.4-2.5s-5.4,21.7-5.4,21.7s0.8,3.8,6.5-1l6-28.2c0,0,3.4-2.9,3.4-4.4
			s3.6,13.2,3.6,13.2l5.5,1.5l2.2-5.4l-5.2-15.9c0,0,1-4.8,1.3-8.6c0.2-3.8,4-7.3,4-7.3l-2.2-3.4l7.7-19.2l-2.7-2.2l-6.7,16.5
			l-3.8,13.4l-5.4-15.3c0,0,1.7-2.3,0.6-5c-1-2.7-7.9-5.6-7.9-5.6L239.8,140.5z"/>
		<path  d="M195.1,71.7c0,0,5.9,1.3,9.8,1.9c0,0,0.2,4.8-1,6.9c-1.3,2.1-3.9,1.5-3.9,1.5l-4.9-0.8l-1.5-2.9
			C193.6,78.2,193.6,73,195.1,71.7z"/>
		<path  d="M195.3,29.7c0,0,4.6-2.1,7.1-1.5c2.5,0.6-1.3,6.5-1.3,6.5l-2.7,2.1C198.4,36.8,197,33.9,195.3,29.7z"/>
		<path  d="M208.5,10.6v5.9l2.1,2.5l7.5,4c0,0,4.4-4.2,5.2-6.2s0,6.2,0,6.2s4.8,4.8,6.9,2.9c2.1-1.9,2.9-7.4,2.9-7.4
			s-4.4-2.6-9.4-3.6c0,0-0.4-2.3-7.1-3.3C216.6,11.5,210.1,6.6,208.5,10.6z"/>
		<path fill="#78C266" d="M54.4,292.4l4.2,7.2l2.5,5l9.8-10.3c0,0,2.5-1.1,4.7-0.3c2.2,0.8,4.5,4.5,4.5,4.5l-2,3.9l-2,0.6l-8.9,9.2
			c0,0,5.3,8.6,14.5,9.2l3.9,2.8l-6.7,5.6c0,0-9.5-2.8-15.3-10l-2.5,2.8l-4.2-4.2l-1.4-7.2c0,0-7.5,2.5-1.1,8.6l2.5,1.1l3.9,5
			c0,0-7.2-0.6-15.1-7c-7.8-6.4-7.8-7.8-7.8-7.8s-2.5-8.6,0-18.7l3.1-7.5c0,0-0.1-0.3-0.4-1c-2.6-6.5-17.2-42.9-20.8-46.7
			c-3.9-4.2-10.6-5-10.9-11.2C8.6,220,12,211,12,211l2.2-46.8c0,0-6.7,19.8-7,20.6s-5.9,1.4-5.9,1.4s6.7-19.8,8.4-39.6
			c0,0-5.3-7.8,2.5-12.5l4.2-2.8c0,0,5.6-30.9,5-34.6l5.3-1.4l-2,16.4c0,0-3.7,18.1-2.8,21.5c-1.1,3.1-3,16.5-2.8,16.4l0.6,17.3
			l7.5-13.9c0,0-0.8-5.6,3.9-8.6l2.5,1.4l0.6,13.1l-2.8,3.1v-3.6c0,0-7,4.2-8.9,13.4S20.9,184,20.9,184l0.3,26.5l5.9,8.6l2.2,1.1
			l4.7,11.7l7.5,19.8c0,0,6.7,30.7,5.6,36.5l3.6,2.5l1.8,1.9L54.4,292.4z"/>
	</g>
	<line fill="#78C266" x1="77.8" y1="336.2" x2="80.1" y2="333.9"/>
</g>
<g id="inf_x5F_dwelt_x5F_back">
	
		<image overflow="visible" width="695" height="837" xlink:href="./assets/images/9P_infield_dwelt_back.png"  transform="matrix(0.4182 0 0 0.4182 0 0)">
	</image>
</g>
<g id="inf_x5F_vw3_x5F_rse" display="none">
	<path display="inline"  d="M145.8-92c6.6,1.1,33.8-21.8,33.8-21.8c-0.3,10.6,5.2,19.9,10.9,21.8
		c6.3,2.5,17.5,3.5,21.9-6.5c0.1-3.1,5.6-64.4,5.6-64.4l-11.8,0.7l-38.5-12.2c-4.2,6.7-5.3,10.8-3.8,21.4l17.8,7.3
		c0,0,0.7,1.4-0.5,3.3c-1.2,1.9-25.1,35.4-37.7,47.4C140.6-93.4,141.8-89.1,145.8-92z M194.3-115.1c-1.2-3.8,1.7-25.2,1.7-25.2
		c1.4,0.1,5.6,1.1,5,4.4c0.3,3.6-1.7,21.4-1.7,21.4S195.8-114.7,194.3-115.1z"/>
	<path display="inline"  d="M210.3-87c-9.4,7.1-40.9-9.1-48.7-11.3c-5.4,4.8-5.7,14.3-5.2,21c8-0.4,45.5,22,52.7,11
		L210.3-87z"/>
	<path display="inline"  d="M167.4-36.5c-0.6,7.3,0,5.3,2.8,5.8c2.8,1.6,3.6-4.8,3.6-4.8s0.8-11.4,2.1-19.1
		c2.3-14,19.8-6,19.2-5.9c6.4,3,12.4,9.3,11.7,22.5l-4,45.5c-0.6-0.1-6.1,67-5.7,67.5c-12.5-6-11.5-24-11.5-24l1.5-17.4l-6-3.2
		c0,0-1.6,28.2-3.4,32.2c-12.6-9.5-11.1-22.2-11.1-22.2s0.4-9.9,1.4-15.6c-2-3.7-6.4-1-6.4-1s-2.2,24.6-2.6,27.4
		c-1.6,4.8-7.7,8.6-9.7,10.2c-3.3,3.9-5.1-4-5.1-4s0.9-7.5,1.1-8.1c1.6-8.3,2-20,4.1-37.5s13.8-13.6,13.8-13.6s23,7.3,27.3,8.8
		s5,0.9,7.8-0.6c-6.9-5-8.3-17.3-8.3-17.3s2.2-17.7,2.7-23.5c-0.8-6.9-6.2-4.1-5.9,0.8c0,0-0.1,3.1-2,18
		c-1.9,14.9-12.4,10.4-12.4,10.4s-2.9-0.3-7.8-2c-11-6.5-11.4-18.5-11.4-18.7c0.2-15.2,2.8-31.6,2.6-34.8c1.7-2.9,14.1-7.8,14.1-7.8
		S168-43.8,167.4-36.5z"/>
</g>
<g id="inf_x5F_vw3_x5F_elt">
	<path  d="M162,65.6c-3,4.8,0.4,27.2,9,18.4c2.5-6.6,4.2-18.4,0.5-31.6c0.1-1.8-4.7-8.7-8.2-4.1
		c0.5-2.8-1.7-26.9-13.6-19.6c-6.1,8.7-4,21.5-3.9,21.5c2.5,18,8.7,12.8,8.7,12.8l1-1.2l0.9-5c0,0-1.1-1.1-1-1.1
		c-8.7-2.2-6.2-14.8-6.2-14.6c2.2-10.7,8.1,1.9,8.1,1.9c2.9,5.4,2.2,18,2.2,18c-0.3,1.6,1.5,1.3,1.7,0.5c3.8-10,7.6,0.5,7.6,0.5
		c2.8,5.3,1.4,14.5,1,15.6c-1.2,0.9-1.5,0.5-2.1-0.2c-3.5-5.9-3.1-11.5-3.1-11.5C164.8,65.3,162.8,64.4,162,65.6z"/>
	<path  d="M147.6,67.4c0,0,3-4.6,6.1-0.8c4.6,6.2,13.5,25.4,15.7,30.2c0,0,1.1,2.1,2.2,1.3c0,0.7,0.3,2.6-2.1,4.4
		c0-0.1-3,1-5.5-3.4s-13.1-28.5-13.1-28.5s-1.5-2.9-2.1-1.2C147.4,69.6,147,67.8,147.6,67.4z"/>
	<path  d="M160.4,109.5c-0.2-0.9-1.6-4.6-1.5-9.3c0.3-1.1,1.2,0,1,1l1.2,5.4c0,0,0.4,4.1,3.7,2.2
		c0.5-1.2,1.9-5.5,1.9-5.5s-1.9-1.1-4.1-5.5c-0.9-0.5-2.7-3.1-4.5-0.2c-0.1,0-0.1,0.6-0.1,0.6s-1.4,0-1.2,1.7
		c-0.1,0.7,0.1,2.5,0.1,2.5s-6-10.5-7-11.4c-0.6-1.5-1.8-8-1.6-9c0.7,0.6,3.9,9.8,3.9,9.8c1.3,3.5,2.7,3.9,4.7,3.4
		c-0.1,0,1.6-0.4,1.8-6.3c0.2-0.3-0.7-1.2-1-0.9c-0.5,0.7-1.1-1.1-1.5-1.8l-5.2-9.8c0,0-1.6-3.6-4.7,0.1c-0.5,1-1.2,3.6-0.7,5.1
		c-0.1,1.6,0.8,5.8,1.1,6.5c-1,0.3-2-0.2-3.7,2.2c-1.9,2.9,0.6,2.9,1.4,2c0.4-0.1,2.1,1.8,2.5,2.8c0.5,1,4.6,10,4.4,10.1
		c-3-3.7-6.6-2.5-8.3,0.6c-1.8,5.1,1,14,1.8,16.8c1.1,1.9,2.6,1,2-0.3c-0.9-1-3.1-14.4-0.8-13.5c-1,3.9,0.7,12.9,2.4,16.9
		c1,2.7,4.5,3,6.1,1l1.6,4.6c0,0,2.5,2.6,2.7-1.2c-0.3-1.5-0.7-7.7,0.7-10.1c1.7,0.5,3.7,1.4,4.2-0.4c0.5-1.8,1.4-4.5,1.4-4.5
		S162.3,115.6,160.4,109.5z M148.9,112.3c0.6,1.3,2.5,7.4,2.5,7.4S149,115.5,148.9,112.3z M155.4,116.3l-1.3-4.6
		c0,0,1.5,1.9,1.9,2.3C155.8,114.3,155.2,115,155.4,116.3z"/>
</g>
<g id="inf_x5F_elite_x5F_logo">
	
		<image overflow="visible" width="2070" height="633" xlink:href="./assets/images/elite.png"  transform="matrix(-5.278686e-03 5.020750e-02 -5.008987e-02 -5.266322e-03 178.6105 29.8791)">
	</image>
</g>
<g id="inf_x5F_rise_x5F_logo">
	
		<image overflow="visible" width="2230" height="668" xlink:href="./assets/images/rise.png"  transform="matrix(-4.200393e-03 4.576520e-02 -4.292677e-02 -3.939879e-03 175.9868 30.9899)">
	</image>
</g>
</svg>
